<svg width="294" height="143" viewBox="0 0 294 143" fill="none" xmlns="http://www.w3.org/2000/svg">
<path d="M2.11823 1.70093C4.88019 1.91442 10.0554 1.75374 12.9649 1.75073L34.6944 1.73901C53.369 1.74652 71.4183 2.14891 85.8184 15.9968C99.5094 29.1628 101.905 49.945 100.38 67.9617C99.2645 81.1385 95.3313 92.4933 86.0968 102.041C70.0637 117.308 51.1165 116.636 30.6905 116.643L2.06648 116.641C2.53123 78.4839 1.70899 39.9144 2.11823 1.70093ZM67.0987 28.5007C55.9956 18.9508 38.6682 20.8474 24.8262 20.8669L24.835 97.5066L38.2276 97.4958C49.5992 97.4458 59.5934 96.9813 68.3868 88.6814C77.1965 78.724 77.7768 66.1651 77.1788 53.5027C76.7643 44.7268 73.9947 34.4323 67.0987 28.5007Z" fill="black"></path>
<path d="M242.404 0.233405C250.269 -0.628845 262.677 0.972396 269.859 3.80865C280.944 8.1844 286.877 13.7592 291.654 24.4309C287.644 26.6982 277.069 34.0011 273.324 34.6549C271.447 31.7521 270.664 29.6404 268.077 27.0244C262.529 21.3649 255.712 20.0044 248.189 19.8012C220.529 19.0537 215.747 41.4344 216.792 64.3711C217.654 83.3486 223.909 98.6612 245.649 98.8762C252.322 98.9412 259.449 97.6511 264.344 92.8361C270.002 87.1336 269.907 79.2012 269.869 71.7134C261.052 71.4952 251.589 71.6847 242.709 71.6572C242.674 65.4957 242.677 59.3342 242.712 53.1729L259.477 53.1759L292.364 53.1812L292.367 116.621C285.242 116.721 277.902 116.631 270.759 116.634C270.874 112.111 270.809 106.501 270.557 101.944C270.527 101.396 270.304 101.274 269.969 100.916L269.427 100.944C268.479 101.854 268.179 102.974 267.517 104.096C262.364 112.734 254.402 117.301 244.482 118.066C211.614 120.601 195.607 98.3462 193.447 67.8837C190.964 32.8494 203.462 3.20241 242.404 0.233405Z" fill="black"></path>
<path d="M172.504 1.69714C173.792 1.78739 175.427 1.77715 176.737 1.7444C182.924 1.5899 189.404 2.07515 195.559 1.6879L163.134 57.4854L197.207 116.601L193.914 116.636C186.964 116.666 180.012 116.654 173.062 116.604C169.827 110.506 149.419 74.3411 146.597 71.6591C144.549 73.5076 137.597 86.2086 135.613 89.6561L120.081 116.629C112.395 116.744 104.422 116.629 96.7127 116.624C100.009 111.824 105.395 101.756 108.438 96.4636L130.908 57.4091C128.545 53.8811 125.8 48.8299 123.629 45.0944L110.751 22.9221C109.032 19.9614 99.375 4.2209 98.7475 1.7319C105.202 2.1194 115.956 1.74865 122.724 1.7384C123.245 2.87715 127.05 9.64865 127.721 10.6039C130.453 14.4866 144.988 42.2179 147.472 43.2396C148.262 42.5964 149.122 41.5856 149.652 40.6971C155.037 31.6841 160.362 22.6154 165.659 13.5514C167.919 9.68739 170.467 5.64864 172.504 1.69714Z" fill="black"></path>
<path d="M0.724432 128.318V127.146H8.90625V128.318H5.47585V138.056H4.15483V128.318H0.724432ZM16.569 138.247C16.0505 138.247 15.58 138.15 15.1574 137.954C14.7348 137.755 14.3992 137.47 14.1507 137.097C13.9021 136.72 13.7778 136.266 13.7778 135.733C13.7778 135.264 13.8701 134.884 14.0548 134.593C14.2394 134.298 14.4862 134.068 14.7952 133.901C15.1041 133.734 15.445 133.61 15.8179 133.528C16.1943 133.443 16.5725 133.375 16.9525 133.325C17.4497 133.262 17.8527 133.214 18.1617 133.182C18.4742 133.146 18.7014 133.088 18.8435 133.006C18.9891 132.924 19.0619 132.782 19.0619 132.58V132.537C19.0619 132.012 18.9181 131.603 18.6304 131.312C18.3463 131.021 17.9149 130.875 17.336 130.875C16.7359 130.875 16.2654 131.007 15.9244 131.269C15.5835 131.532 15.3438 131.813 15.2053 132.111L14.0122 131.685C14.2252 131.188 14.5093 130.801 14.8644 130.524C15.2231 130.243 15.6137 130.048 16.0363 129.938C16.4624 129.824 16.8815 129.767 17.2934 129.767C17.5562 129.767 17.858 129.799 18.199 129.863C18.5434 129.923 18.8754 130.05 19.195 130.241C19.5182 130.433 19.7863 130.722 19.9994 131.11C20.2124 131.497 20.319 132.015 20.319 132.665V138.056H19.0619V136.948H18.998C18.9127 137.125 18.7707 137.315 18.5718 137.518C18.373 137.72 18.1084 137.892 17.7781 138.034C17.4479 138.176 17.0448 138.247 16.569 138.247ZM16.7607 137.118C17.2579 137.118 17.6769 137.02 18.0178 136.825C18.3623 136.63 18.6215 136.378 18.7955 136.069C18.9731 135.76 19.0619 135.435 19.0619 135.094V133.943C19.0086 134.007 18.8914 134.066 18.7103 134.119C18.5328 134.169 18.3268 134.213 18.0924 134.252C17.8616 134.288 17.6361 134.32 17.4159 134.348C17.1993 134.373 17.0235 134.394 16.8886 134.412C16.5619 134.455 16.2565 134.524 15.9724 134.62C15.6919 134.712 15.4646 134.852 15.2906 135.041C15.1201 135.225 15.0349 135.477 15.0349 135.797C15.0349 136.234 15.1965 136.564 15.5196 136.788C15.8463 137.008 16.26 137.118 16.7607 137.118ZM30.4373 138.226C29.6703 138.226 29.0098 138.045 28.4558 137.683C27.9018 137.32 27.4757 136.822 27.1774 136.186C26.8791 135.55 26.7299 134.824 26.7299 134.007C26.7299 133.176 26.8826 132.443 27.188 131.807C27.497 131.168 27.9267 130.669 28.4771 130.311C29.0311 129.948 29.6774 129.767 30.416 129.767C30.9913 129.767 31.5098 129.874 31.9714 130.087C32.4331 130.3 32.8113 130.598 33.106 130.982C33.4007 131.365 33.5836 131.813 33.6547 132.324H32.3975C32.3017 131.951 32.0886 131.621 31.7583 131.333C31.4316 131.042 30.9913 130.896 30.4373 130.896C29.9473 130.896 29.5176 131.024 29.1483 131.28C28.7825 131.532 28.4966 131.889 28.2907 132.351C28.0882 132.809 27.987 133.347 27.987 133.965C27.987 134.597 28.0865 135.147 28.2853 135.616C28.4877 136.085 28.7718 136.449 29.1376 136.708C29.5069 136.967 29.9402 137.097 30.4373 137.097C30.764 137.097 31.0605 137.04 31.3269 136.926C31.5932 136.813 31.8187 136.649 32.0034 136.436C32.188 136.223 32.3194 135.967 32.3975 135.669H33.6547C33.5836 136.152 33.4078 136.587 33.1273 136.974C32.8503 137.358 32.4828 137.663 32.0247 137.89C31.5701 138.114 31.041 138.226 30.4373 138.226ZM43.5506 129.874V130.939H39.3105V129.874H43.5506ZM40.5463 127.913H41.8034V135.712C41.8034 136.067 41.8549 136.333 41.9579 136.511C42.0645 136.685 42.1994 136.802 42.3627 136.862C42.5297 136.919 42.7054 136.948 42.8901 136.948C43.0286 136.948 43.1422 136.94 43.231 136.926C43.3198 136.909 43.3908 136.894 43.4441 136.884L43.6998 138.013C43.6145 138.045 43.4956 138.077 43.3429 138.109C43.1902 138.144 42.9966 138.162 42.7623 138.162C42.4071 138.162 42.0591 138.086 41.7182 137.933C41.3809 137.78 41.1003 137.548 40.8766 137.235C40.6564 136.923 40.5463 136.529 40.5463 136.053V127.913ZM49.9416 138.056V129.874H51.1987V138.056H49.9416ZM50.5808 128.51C50.3358 128.51 50.1245 128.427 49.9469 128.26C49.7729 128.093 49.6859 127.892 49.6859 127.658C49.6859 127.423 49.7729 127.223 49.9469 127.056C50.1245 126.889 50.3358 126.806 50.5808 126.806C50.8258 126.806 51.0353 126.889 51.2093 127.056C51.3869 127.223 51.4757 127.423 51.4757 127.658C51.4757 127.892 51.3869 128.093 51.2093 128.26C51.0353 128.427 50.8258 128.51 50.5808 128.51ZM61.325 138.226C60.558 138.226 59.8975 138.045 59.3435 137.683C58.7895 137.32 58.3634 136.822 58.0651 136.186C57.7668 135.55 57.6176 134.824 57.6176 134.007C57.6176 133.176 57.7703 132.443 58.0757 131.807C58.3847 131.168 58.8144 130.669 59.3648 130.311C59.9188 129.948 60.5651 129.767 61.3037 129.767C61.879 129.767 62.3975 129.874 62.8591 130.087C63.3208 130.3 63.699 130.598 63.9937 130.982C64.2884 131.365 64.4713 131.813 64.5423 132.324H63.2852C63.1894 131.951 62.9763 131.621 62.646 131.333C62.3193 131.042 61.879 130.896 61.325 130.896C60.835 130.896 60.4053 131.024 60.036 131.28C59.6702 131.532 59.3843 131.889 59.1784 132.351C58.9759 132.809 58.8747 133.347 58.8747 133.965C58.8747 134.597 58.9742 135.147 59.173 135.616C59.3754 136.085 59.6595 136.449 60.0253 136.708C60.3946 136.967 60.8279 137.097 61.325 137.097C61.6517 137.097 61.9482 137.04 62.2146 136.926C62.4809 136.813 62.7064 136.649 62.8911 136.436C63.0757 136.223 63.2071 135.967 63.2852 135.669H64.5423C64.4713 136.152 64.2955 136.587 64.015 136.974C63.738 137.358 63.3705 137.663 62.9124 137.89C62.4578 138.114 61.9287 138.226 61.325 138.226ZM73.2877 138.247C72.7693 138.247 72.2987 138.15 71.8762 137.954C71.4536 137.755 71.118 137.47 70.8694 137.097C70.6208 136.72 70.4965 136.266 70.4965 135.733C70.4965 135.264 70.5889 134.884 70.7735 134.593C70.9582 134.298 71.205 134.068 71.5139 133.901C71.8229 133.734 72.1638 133.61 72.5367 133.528C72.9131 133.443 73.2913 133.375 73.6713 133.325C74.1684 133.262 74.5715 133.214 74.8804 133.182C75.1929 133.146 75.4202 133.088 75.5622 133.006C75.7078 132.924 75.7806 132.782 75.7806 132.58V132.537C75.7806 132.012 75.6368 131.603 75.3492 131.312C75.0651 131.021 74.6336 130.875 74.0548 130.875C73.4546 130.875 72.9841 131.007 72.6432 131.269C72.3023 131.532 72.0626 131.813 71.9241 132.111L70.7309 131.685C70.944 131.188 71.2281 130.801 71.5832 130.524C71.9419 130.243 72.3325 130.048 72.7551 129.938C73.1812 129.824 73.6002 129.767 74.0122 129.767C74.2749 129.767 74.5768 129.799 74.9177 129.863C75.2622 129.923 75.5942 130.05 75.9138 130.241C76.2369 130.433 76.5051 130.722 76.7181 131.11C76.9312 131.497 77.0377 132.015 77.0377 132.665V138.056H75.7806V136.948H75.7167C75.6315 137.125 75.4894 137.315 75.2906 137.518C75.0917 137.72 74.8271 137.892 74.4969 138.034C74.1666 138.176 73.7636 138.247 73.2877 138.247ZM73.4795 137.118C73.9767 137.118 74.3957 137.02 74.7366 136.825C75.0811 136.63 75.3403 136.378 75.5143 136.069C75.6919 135.76 75.7806 135.435 75.7806 135.094V133.943C75.7274 134.007 75.6102 134.066 75.4291 134.119C75.2515 134.169 75.0455 134.213 74.8112 134.252C74.5803 134.288 74.3548 134.32 74.1347 134.348C73.9181 134.373 73.7423 134.394 73.6073 134.412C73.2806 134.455 72.9752 134.524 72.6911 134.62C72.4106 134.712 72.1833 134.852 72.0093 135.041C71.8389 135.225 71.7536 135.477 71.7536 135.797C71.7536 136.234 71.9152 136.564 72.2384 136.788C72.5651 137.008 72.9788 137.118 73.4795 137.118ZM85.0893 127.146V138.056H83.8322V127.146H85.0893ZM108.238 130.556C108.121 130.197 107.967 129.875 107.775 129.591C107.587 129.304 107.361 129.059 107.098 128.856C106.839 128.654 106.544 128.499 106.214 128.393C105.884 128.286 105.522 128.233 105.128 128.233C104.481 128.233 103.894 128.4 103.364 128.734C102.835 129.068 102.415 129.559 102.102 130.209C101.79 130.859 101.633 131.656 101.633 132.601C101.633 133.546 101.791 134.343 102.107 134.993C102.423 135.643 102.851 136.134 103.391 136.468C103.931 136.802 104.538 136.969 105.213 136.969C105.838 136.969 106.388 136.836 106.864 136.569C107.343 136.3 107.716 135.92 107.983 135.429C108.253 134.936 108.388 134.355 108.388 133.688L108.792 133.773H105.511V132.601H109.666V133.773C109.666 134.671 109.474 135.453 109.091 136.117C108.711 136.781 108.185 137.296 107.514 137.661C106.846 138.024 106.079 138.205 105.213 138.205C104.247 138.205 103.398 137.977 102.667 137.523C101.939 137.068 101.37 136.422 100.962 135.584C100.557 134.746 100.355 133.752 100.355 132.601C100.355 131.738 100.47 130.962 100.701 130.273C100.935 129.581 101.266 128.991 101.692 128.505C102.118 128.018 102.622 127.645 103.205 127.386C103.787 127.127 104.428 126.997 105.128 126.997C105.703 126.997 106.239 127.084 106.736 127.258C107.237 127.429 107.683 127.672 108.073 127.988C108.467 128.301 108.796 128.675 109.059 129.112C109.321 129.545 109.503 130.026 109.602 130.556H108.238ZM116.258 138.056V129.874H117.472V131.11H117.558C117.707 130.705 117.977 130.376 118.367 130.124C118.758 129.872 119.198 129.746 119.688 129.746C119.781 129.746 119.896 129.748 120.035 129.751C120.173 129.755 120.278 129.76 120.349 129.767V131.046C120.306 131.035 120.209 131.019 120.056 130.998C119.907 130.973 119.749 130.96 119.582 130.96C119.184 130.96 118.829 131.044 118.517 131.211C118.208 131.374 117.963 131.601 117.781 131.893C117.604 132.18 117.515 132.509 117.515 132.878V138.056H116.258ZM129.414 138.226C128.675 138.226 128.027 138.05 127.47 137.699C126.916 137.347 126.482 136.855 126.17 136.223C125.861 135.591 125.706 134.852 125.706 134.007C125.706 133.155 125.861 132.411 126.17 131.775C126.482 131.14 126.916 130.646 127.47 130.295C128.027 129.943 128.675 129.767 129.414 129.767C130.153 129.767 130.799 129.943 131.353 130.295C131.91 130.646 132.344 131.14 132.653 131.775C132.965 132.411 133.121 133.155 133.121 134.007C133.121 134.852 132.965 135.591 132.653 136.223C132.344 136.855 131.91 137.347 131.353 137.699C130.799 138.05 130.153 138.226 129.414 138.226ZM129.414 137.097C129.975 137.097 130.437 136.953 130.799 136.665C131.161 136.378 131.429 135.999 131.603 135.531C131.777 135.062 131.864 134.554 131.864 134.007C131.864 133.46 131.777 132.951 131.603 132.478C131.429 132.006 131.161 131.624 130.799 131.333C130.437 131.042 129.975 130.896 129.414 130.896C128.853 130.896 128.391 131.042 128.029 131.333C127.667 131.624 127.399 132.006 127.225 132.478C127.051 132.951 126.964 133.46 126.964 134.007C126.964 134.554 127.051 135.062 127.225 135.531C127.399 135.999 127.667 136.378 128.029 136.665C128.391 136.953 128.853 137.097 129.414 137.097ZM141.116 138.056L138.623 129.874H139.944L141.712 136.138H141.797L143.545 129.874H144.887L146.613 136.117H146.698L148.466 129.874H149.787L147.295 138.056H146.059L144.269 131.77H144.141L142.351 138.056H141.116ZM159.508 129.874V130.939H155.268V129.874H159.508ZM156.503 127.913H157.76V135.712C157.76 136.067 157.812 136.333 157.915 136.511C158.021 136.685 158.156 136.802 158.32 136.862C158.487 136.919 158.662 136.948 158.847 136.948C158.986 136.948 159.099 136.94 159.188 136.926C159.277 136.909 159.348 136.894 159.401 136.884L159.657 138.013C159.572 138.045 159.453 138.077 159.3 138.109C159.147 138.144 158.954 138.162 158.719 138.162C158.364 138.162 158.016 138.086 157.675 137.933C157.338 137.78 157.057 137.548 156.834 137.235C156.613 136.923 156.503 136.529 156.503 136.053V127.913ZM167.331 133.134V138.056H166.074V127.146H167.331V131.152H167.438C167.63 130.73 167.917 130.394 168.301 130.145C168.688 129.893 169.203 129.767 169.846 129.767C170.403 129.767 170.892 129.879 171.311 130.103C171.73 130.323 172.055 130.662 172.285 131.12C172.52 131.575 172.637 132.154 172.637 132.857V138.056H171.38V132.942C171.38 132.292 171.211 131.79 170.874 131.434C170.54 131.076 170.077 130.896 169.483 130.896C169.072 130.896 168.702 130.983 168.376 131.157C168.052 131.331 167.797 131.585 167.608 131.919C167.424 132.253 167.331 132.658 167.331 133.134ZM188.326 127.146H189.903L193.61 136.202H193.738L197.445 127.146H199.022V138.056H197.786V129.767H197.68L194.271 138.056H193.077L189.668 129.767H189.562V138.056H188.326V127.146ZM208.408 138.247C207.889 138.247 207.419 138.15 206.996 137.954C206.574 137.755 206.238 137.47 205.99 137.097C205.741 136.72 205.617 136.266 205.617 135.733C205.617 135.264 205.709 134.884 205.894 134.593C206.078 134.298 206.325 134.068 206.634 133.901C206.943 133.734 207.284 133.61 207.657 133.528C208.033 133.443 208.411 133.375 208.791 133.325C209.289 133.262 209.692 133.214 210.001 133.182C210.313 133.146 210.54 133.088 210.682 133.006C210.828 132.924 210.901 132.782 210.901 132.58V132.537C210.901 132.012 210.757 131.603 210.469 131.312C210.185 131.021 209.754 130.875 209.175 130.875C208.575 130.875 208.104 131.007 207.763 131.269C207.422 131.532 207.183 131.813 207.044 132.111L205.851 131.685C206.064 131.188 206.348 130.801 206.703 130.524C207.062 130.243 207.453 130.048 207.875 129.938C208.301 129.824 208.72 129.767 209.132 129.767C209.395 129.767 209.697 129.799 210.038 129.863C210.382 129.923 210.714 130.05 211.034 130.241C211.357 130.433 211.625 130.722 211.838 131.11C212.051 131.497 212.158 132.015 212.158 132.665V138.056H210.901V136.948H210.837C210.752 137.125 210.61 137.315 210.411 137.518C210.212 137.72 209.947 137.892 209.617 138.034C209.287 138.176 208.884 138.247 208.408 138.247ZM208.6 137.118C209.097 137.118 209.516 137.02 209.857 136.825C210.201 136.63 210.46 136.378 210.634 136.069C210.812 135.76 210.901 135.435 210.901 135.094V133.943C210.847 134.007 210.73 134.066 210.549 134.119C210.372 134.169 210.166 134.213 209.931 134.252C209.7 134.288 209.475 134.32 209.255 134.348C209.038 134.373 208.862 134.394 208.727 134.412C208.401 134.455 208.095 134.524 207.811 134.62C207.531 134.712 207.303 134.852 207.129 135.041C206.959 135.225 206.874 135.477 206.874 135.797C206.874 136.234 207.035 136.564 207.358 136.788C207.685 137.008 208.099 137.118 208.6 137.118ZM218.952 138.056V129.874H220.167V131.11H220.252C220.401 130.705 220.671 130.376 221.062 130.124C221.452 129.872 221.893 129.746 222.383 129.746C222.475 129.746 222.59 129.748 222.729 129.751C222.867 129.755 222.972 129.76 223.043 129.767V131.046C223.001 131.035 222.903 131.019 222.75 130.998C222.601 130.973 222.443 130.96 222.276 130.96C221.878 130.96 221.523 131.044 221.211 131.211C220.902 131.374 220.657 131.601 220.476 131.893C220.298 132.18 220.209 132.509 220.209 132.878V138.056H218.952ZM230.205 135.073L230.184 133.517H230.44L234.019 129.874H235.575L231.761 133.73H231.654L230.205 135.073ZM229.033 138.056V127.146H230.29V138.056H229.033ZM234.232 138.056L231.036 134.007L231.931 133.134L235.83 138.056H234.232ZM244.786 138.226C243.998 138.226 243.318 138.052 242.746 137.704C242.178 137.352 241.739 136.862 241.43 136.234C241.125 135.602 240.972 134.867 240.972 134.029C240.972 133.19 241.125 132.452 241.43 131.813C241.739 131.17 242.169 130.669 242.719 130.311C243.273 129.948 243.92 129.767 244.658 129.767C245.084 129.767 245.505 129.838 245.921 129.98C246.336 130.122 246.714 130.353 247.055 130.673C247.396 130.989 247.668 131.408 247.87 131.93C248.073 132.452 248.174 133.095 248.174 133.858V134.391H241.867V133.304H246.895C246.895 132.842 246.803 132.431 246.618 132.068C246.437 131.706 246.178 131.42 245.841 131.211C245.507 131.001 245.113 130.896 244.658 130.896C244.157 130.896 243.724 131.021 243.358 131.269C242.996 131.514 242.718 131.834 242.522 132.228C242.327 132.622 242.229 133.045 242.229 133.496V134.22C242.229 134.838 242.336 135.362 242.549 135.792C242.765 136.218 243.066 136.543 243.449 136.766C243.833 136.987 244.278 137.097 244.786 137.097C245.116 137.097 245.415 137.051 245.681 136.958C245.951 136.862 246.183 136.72 246.379 136.532C246.574 136.34 246.725 136.102 246.831 135.818L248.046 136.159C247.918 136.571 247.703 136.933 247.401 137.246C247.1 137.555 246.727 137.796 246.283 137.97C245.839 138.141 245.34 138.226 244.786 138.226ZM258.144 129.874V130.939H253.904V129.874H258.144ZM255.14 127.913H256.397V135.712C256.397 136.067 256.449 136.333 256.552 136.511C256.658 136.685 256.793 136.802 256.956 136.862C257.123 136.919 257.299 136.948 257.484 136.948C257.622 136.948 257.736 136.94 257.825 136.926C257.914 136.909 257.985 136.894 258.038 136.884L258.294 138.013C258.208 138.045 258.089 138.077 257.937 138.109C257.784 138.144 257.59 138.162 257.356 138.162C257.001 138.162 256.653 138.086 256.312 137.933C255.975 137.78 255.694 137.548 255.47 137.235C255.25 136.923 255.14 136.529 255.14 136.053V127.913ZM264.535 138.056V129.874H265.792V138.056H264.535ZM265.175 128.51C264.93 128.51 264.718 128.427 264.541 128.26C264.367 128.093 264.28 127.892 264.28 127.658C264.28 127.423 264.367 127.223 264.541 127.056C264.718 126.889 264.93 126.806 265.175 126.806C265.42 126.806 265.629 126.889 265.803 127.056C265.981 127.223 266.069 127.423 266.069 127.658C266.069 127.892 265.981 128.093 265.803 128.26C265.629 128.427 265.42 128.51 265.175 128.51ZM273.852 133.134V138.056H272.595V129.874H273.809V131.152H273.916C274.108 130.737 274.399 130.403 274.79 130.151C275.18 129.895 275.684 129.767 276.302 129.767C276.856 129.767 277.341 129.881 277.756 130.108C278.172 130.332 278.495 130.673 278.726 131.131C278.957 131.585 279.072 132.161 279.072 132.857V138.056H277.815V132.942C277.815 132.299 277.648 131.798 277.314 131.44C276.981 131.078 276.522 130.896 275.94 130.896C275.539 130.896 275.18 130.983 274.864 131.157C274.552 131.331 274.305 131.585 274.124 131.919C273.943 132.253 273.852 132.658 273.852 133.134ZM289.172 141.294C288.565 141.294 288.043 141.216 287.606 141.06C287.169 140.907 286.805 140.705 286.514 140.453C286.226 140.204 285.997 139.938 285.827 139.654L286.828 138.95C286.942 139.1 287.086 139.27 287.26 139.462C287.434 139.657 287.672 139.826 287.973 139.968C288.279 140.113 288.678 140.186 289.172 140.186C289.832 140.186 290.377 140.026 290.807 139.707C291.237 139.387 291.452 138.887 291.452 138.205V136.543H291.345C291.253 136.692 291.121 136.877 290.951 137.097C290.784 137.313 290.543 137.507 290.227 137.677C289.914 137.844 289.491 137.928 288.959 137.928C288.298 137.928 287.705 137.771 287.18 137.459C286.658 137.146 286.244 136.692 285.939 136.095C285.637 135.499 285.486 134.774 285.486 133.922C285.486 133.084 285.633 132.354 285.928 131.733C286.223 131.108 286.633 130.625 287.158 130.284C287.684 129.939 288.291 129.767 288.98 129.767C289.513 129.767 289.935 129.856 290.248 130.034C290.564 130.208 290.805 130.406 290.972 130.63C291.143 130.85 291.274 131.031 291.366 131.173H291.494V129.874H292.709V138.29C292.709 138.993 292.549 139.565 292.229 140.005C291.913 140.449 291.487 140.774 290.951 140.98C290.418 141.189 289.825 141.294 289.172 141.294ZM289.129 136.798C289.634 136.798 290.06 136.683 290.408 136.452C290.756 136.221 291.02 135.889 291.201 135.456C291.382 135.023 291.473 134.504 291.473 133.901C291.473 133.311 291.384 132.791 291.207 132.34C291.029 131.889 290.766 131.536 290.418 131.28C290.07 131.024 289.641 130.896 289.129 130.896C288.597 130.896 288.153 131.031 287.798 131.301C287.446 131.571 287.181 131.933 287.004 132.388C286.83 132.842 286.743 133.347 286.743 133.901C286.743 134.469 286.832 134.971 287.009 135.408C287.19 135.841 287.457 136.182 287.808 136.431C288.163 136.676 288.604 136.798 289.129 136.798Z" fill="black"></path>
</svg>
