<svg width="40" height="37" viewBox="0 0 40 37" fill="none" xmlns="http://www.w3.org/2000/svg">
<mask id="mask0_45_140" style="mask-type:luminance" maskUnits="userSpaceOnUse" x="0" y="0" width="40" height="37">
<path d="M28.6986 8.69863C28.6986 13.4932 24.7945 17.3973 20 17.3973C15.2055 17.3973 11.3014 13.4932 11.3014 8.69863C11.3014 3.90411 15.2055 0 20 0C24.863 0 28.6986 3.83562 28.6986 8.69863ZM8.69863 19.5205C3.90411 19.5205 0 23.4247 0 28.2192C0 33.0137 3.90411 36.9178 8.69863 36.9178C13.4932 36.9178 17.3973 33.0137 17.3973 28.2192C17.3973 23.4247 13.5616 19.5205 8.69863 19.5205ZM31.3014 19.5205C26.5068 19.5205 22.6027 23.4247 22.6027 28.2192C22.6027 33.0137 26.5068 36.9178 31.3014 36.9178C36.0959 36.9178 40 33.0137 40 28.2192C40 23.4247 36.1644 19.5205 31.3014 19.5205Z" fill="white"/>
</mask>
<g mask="url(#mask0_45_140)">
<path d="M19.9998 -0.411133C32.1231 -0.411133 41.9176 9.38339 41.9176 21.5067C41.9176 33.63 32.1231 43.4245 19.9998 43.4245C7.87655 43.4245 -1.91797 33.63 -1.91797 21.5067C-1.84948 9.38339 7.94504 -0.411133 19.9998 -0.411133Z" fill="url(#paint0_radial_45_140)"/>
</g>
<defs>
<radialGradient id="paint0_radial_45_140" cx="0" cy="0" r="1" gradientUnits="userSpaceOnUse" gradientTransform="translate(20.0258 21.4875) rotate(-90) scale(21.9091)">
<stop stop-color="#FFB900"/>
<stop offset="0.6" stop-color="#F95D8F"/>
<stop offset="0.9991" stop-color="#F95353"/>
</radialGradient>
</defs>
</svg>
