<svg width="34" height="40" viewBox="0 0 34 40" fill="none" xmlns="http://www.w3.org/2000/svg">
<g clip-path="url(#clip0_45_102)">
<mask id="mask0_45_102" style="mask-type:luminance" maskUnits="userSpaceOnUse" x="0" y="0" width="34" height="40">
<path d="M33.7362 0H0.10791V40H33.7362V0Z" fill="white"/>
</mask>
<g mask="url(#mask0_45_102)">
<path fill-rule="evenodd" clip-rule="evenodd" d="M25.831 10.3132V14.4213H25.8245C29.5873 14.9961 32.5931 17.8206 33.3642 21.506C34.1353 25.1913 32.5094 28.9624 29.286 30.9653C26.0627 32.9683 21.9196 32.7817 18.8937 30.4973L15.5105 33.8413C15.598 34.1127 15.6447 34.3953 15.6487 34.6801C15.6487 36.3007 14.3195 37.6144 12.6799 37.6144C11.0403 37.6144 9.71114 36.3007 9.71114 34.6801C9.71114 33.0595 11.0403 31.7457 12.6799 31.7457C12.968 31.7498 13.2539 31.7958 13.5284 31.8823L16.9485 28.502C14.7922 25.4698 14.7365 21.4413 16.808 18.3523L5.57 9.70494C4.06211 10.5604 2.15292 10.2448 1.0088 8.95082C-0.135321 7.65688 -0.196172 5.74456 0.863428 4.38211C1.92303 3.01967 3.80837 2.58605 5.36766 3.34616C6.92694 4.10628 7.72649 5.84871 7.27784 7.50899L18.708 16.3078C19.955 15.3167 21.4447 14.6689 23.0264 14.4298V10.3132C21.9034 9.79477 21.1836 8.68276 21.178 7.45776V7.36173C21.1828 5.61579 22.6136 4.20159 24.38 4.1969H24.4773C26.2436 4.20159 27.6744 5.61579 27.6791 7.36173V7.45776C27.6737 8.68276 26.9539 9.79477 25.831 10.3132ZM19.753 23.3212C19.7487 25.8752 21.8391 27.9497 24.4231 27.9557L24.4339 27.9578C27.0191 27.9578 29.1148 25.8863 29.1148 23.331C29.116 20.7769 27.0231 18.705 24.439 18.7023C21.855 18.6995 19.7574 20.767 19.753 23.3212Z" fill="#FF4800"/>
</g>
</g>
<defs>
<clipPath id="clip0_45_102">
<rect width="33.8462" height="40" fill="white"/>
</clipPath>
</defs>
</svg>
