<svg width="40" height="35" viewBox="0 0 40 35" fill="none" xmlns="http://www.w3.org/2000/svg">
<g clip-path="url(#clip0_48_416)">
<path d="M38.0377 31.9007C38.1235 31.9016 38.2086 31.8848 38.2877 31.8514C38.3668 31.818 38.4381 31.7687 38.4974 31.7066C38.5566 31.6445 38.6024 31.5708 38.632 31.4903C38.6616 31.4097 38.6743 31.3239 38.6694 31.2383C38.6694 30.7684 38.3859 30.5439 37.8044 30.5439H36.8647V33.0038H37.2182V31.9315H37.6524L37.6624 31.9446L38.3363 33.0038H38.7143L37.9892 31.9075L38.0377 31.9007ZM37.629 31.6543H37.2192V30.8227H37.7386C38.0069 30.8227 38.3128 30.8666 38.3128 31.2179C38.3128 31.6219 38.0033 31.6543 37.6269 31.6543" fill="#0A66C2"/>
<path d="M28.8186 28.8183H23.8072V20.9701C23.8072 19.0987 23.7738 16.6895 21.2007 16.6895C18.5905 16.6895 18.1912 18.7285 18.1912 20.8339V28.8178H13.1797V12.6787H17.9907V14.8843H18.058C18.5395 14.0611 19.2352 13.3839 20.0712 12.9248C20.9071 12.4657 21.8518 12.2419 22.8049 12.2773C27.8842 12.2773 28.8207 15.6183 28.8207 19.9647L28.8186 28.8183ZM7.52505 10.4727C6.94985 10.4728 6.38753 10.3023 5.90922 9.98282C5.43091 9.66335 5.0581 9.20921 4.83789 8.67784C4.61767 8.14647 4.55996 7.56173 4.67208 6.99757C4.78419 6.43341 5.06109 5.91516 5.46774 5.50837C5.87439 5.10157 6.39254 4.8245 6.95666 4.71218C7.52078 4.59987 8.10552 4.65735 8.63697 4.87737C9.16842 5.0974 9.62269 5.47007 9.94233 5.94827C10.262 6.42646 10.4327 6.98871 10.4328 7.5639C10.4328 7.94582 10.3577 8.324 10.2116 8.67687C10.0655 9.02974 9.85134 9.35038 9.58133 9.62048C9.31133 9.89058 8.99074 10.1049 8.63793 10.2511C8.28511 10.3973 7.90696 10.4726 7.52505 10.4727ZM10.0308 28.8183H5.01408V12.6787H10.0308V28.8183ZM31.3171 0.00230432H2.49583C1.84167 -0.00507788 1.2113 0.247551 0.743312 0.704678C0.275321 1.1618 0.00798367 1.78603 0 2.44018V31.381C0.00771043 32.0355 0.27489 32.6601 0.742866 33.1177C1.21084 33.5753 1.84134 33.8284 2.49583 33.8215H31.3171C31.9728 33.8297 32.6051 33.5773 33.0749 33.1197C33.5448 32.6621 33.8137 32.0368 33.8228 31.381V2.43809C33.8134 1.78264 33.5443 1.15771 33.0745 0.700593C32.6046 0.243478 31.9725 -0.00842925 31.3171 0.000215362" fill="#0A66C2"/>
<path d="M37.6715 29.4482C37.0618 29.4541 36.4791 29.7012 36.0511 30.1354C35.6231 30.5697 35.3844 31.1558 35.3874 31.7656C35.3903 32.3753 35.6346 32.9591 36.0668 33.3892C36.499 33.8193 37.0839 34.0608 37.6937 34.0608C38.3034 34.0608 38.8884 33.8193 39.3205 33.3892C39.7527 32.9591 39.997 32.3753 40 31.7656C40.0029 31.1558 39.7643 30.5697 39.3362 30.1354C38.9082 29.7012 38.3256 29.4541 37.7158 29.4482H37.6715ZM37.6715 33.7967C37.2716 33.8034 36.8786 33.6913 36.5424 33.4747C36.2062 33.258 35.9418 32.9465 35.7826 32.5796C35.6234 32.2127 35.5766 31.8068 35.6481 31.4132C35.7195 31.0197 35.9061 30.6562 36.1842 30.3687C36.4623 30.0812 36.8194 29.8826 37.2103 29.798C37.6013 29.7135 38.0085 29.7468 38.3806 29.8937C38.7526 30.0405 39.0727 30.2945 39.3004 30.6233C39.5281 30.9521 39.6532 31.3411 39.6599 31.741C39.6599 31.7525 39.6599 31.7634 39.6599 31.7749C39.6711 32.2996 39.4734 32.8072 39.1104 33.1861C38.7475 33.5651 38.2488 33.7843 37.7242 33.7957H37.672" fill="#0A66C2"/>
</g>
<defs>
<clipPath id="clip0_48_416">
<rect width="40" height="34.1021" fill="white"/>
</clipPath>
</defs>
</svg>
