<svg width="40" height="40" viewBox="0 0 40 40" fill="none" xmlns="http://www.w3.org/2000/svg">
<g clip-path="url(#clip0_49_454)">
<path d="M40 0H0V40H40V0Z" fill="#FF4500"/>
<path d="M24.0687 9.43106C24.4156 10.9014 25.7359 11.9967 27.3125 11.9967C29.1531 11.9967 30.6453 10.5045 30.6453 8.66387C30.6453 6.82324 29.1531 5.33105 27.3125 5.33105C25.7031 5.33105 24.3609 6.47168 24.0484 7.98887C21.3531 8.27793 19.2484 10.5639 19.2484 13.3342C19.2484 13.3404 19.2484 13.3451 19.2484 13.3514C16.3172 13.4748 13.6406 14.3092 11.5156 15.6264C10.7265 15.0154 9.73591 14.6514 8.66091 14.6514C6.08123 14.6514 3.9906 16.742 3.9906 19.3217C3.9906 21.1936 5.0906 22.8061 6.67966 23.5514C6.83435 28.9732 12.7422 33.3342 20.0093 33.3342C27.2765 33.3342 33.1922 28.9686 33.339 23.542C34.9156 22.792 36.0062 21.1842 36.0062 19.3232C36.0062 16.7436 33.9156 14.6529 31.3359 14.6529C30.2656 14.6529 29.2797 15.0139 28.4922 15.6201C26.3484 14.2936 23.6422 13.4592 20.6812 13.3482C20.6812 13.3436 20.6812 13.3404 20.6812 13.3357C20.6812 11.3514 22.1562 9.70449 24.0687 9.43418V9.43106ZM11.3281 22.2857C11.4062 20.592 12.5312 19.292 13.839 19.292C15.1469 19.292 16.1468 20.6654 16.0687 22.3592C15.9906 24.0529 15.014 24.6686 13.7047 24.6686C12.3953 24.6686 11.25 23.9795 11.3281 22.2857ZM26.1812 19.292C27.4906 19.292 28.6156 20.592 28.6922 22.2857C28.7703 23.9795 27.6234 24.6686 26.3156 24.6686C25.0078 24.6686 24.0297 24.0545 23.9515 22.3592C23.8734 20.6654 24.8718 19.292 26.1812 19.292ZM24.625 26.2045C24.8703 26.2295 25.0265 26.4842 24.9312 26.7123C24.1265 28.6357 22.2265 29.9873 20.0093 29.9873C17.7922 29.9873 15.8937 28.6357 15.0875 26.7123C14.9922 26.4842 15.1484 26.2295 15.3937 26.2045C16.8312 26.0592 18.3859 25.9795 20.0093 25.9795C21.6328 25.9795 23.1859 26.0592 24.625 26.2045Z" fill="white"/>
</g>
<defs>
<clipPath id="clip0_49_454">
<rect width="40" height="40" fill="white"/>
</clipPath>
</defs>
</svg>
