<svg width="40" height="28" viewBox="0 0 40 28" fill="none" xmlns="http://www.w3.org/2000/svg">
<g clip-path="url(#clip0_45_120)">
<mask id="mask0_45_120" style="mask-type:luminance" maskUnits="userSpaceOnUse" x="0" y="0" width="40" height="28">
<path d="M0.00878906 0.0732422H39.8775V27.9765H0.00878906V0.0732422Z" fill="white"/>
</mask>
<g mask="url(#mask0_45_120)">
<path fill-rule="evenodd" clip-rule="evenodd" d="M16.5946 3.11749C17.8806 1.77771 19.6712 0.946356 21.6514 0.946356C24.2837 0.946356 26.5805 2.41419 27.8032 4.59354C28.8973 4.10468 30.0823 3.85272 31.2806 3.85419C36.0284 3.85419 39.8775 7.73683 39.8775 12.5266C39.8775 17.3163 36.0284 21.1991 31.2806 21.1991C30.7008 21.1991 30.1347 21.1408 29.587 21.0303C28.5102 22.951 26.4574 24.2491 24.102 24.2491C23.1492 24.2504 22.2088 24.0339 21.3525 23.6162C20.261 26.1846 17.7168 27.9853 14.7525 27.9853C11.6649 27.9853 9.03341 26.0319 8.02403 23.2923C7.57415 23.3872 7.1156 23.4349 6.65582 23.4347C2.97978 23.4347 0 20.4237 0 16.7096C0 14.2202 1.33861 12.0469 3.32821 10.8842C2.90667 9.91357 2.68975 8.86643 2.69099 7.80819C2.69099 3.53639 6.15868 0.0732422 10.4362 0.0732422C12.9475 0.0732422 15.1795 1.26709 16.5946 3.11749Z" fill="#00A1E0"/>
</g>
<path fill-rule="evenodd" clip-rule="evenodd" d="M5.77591 14.5481C5.75085 14.6134 5.78485 14.627 5.7929 14.6386C5.86778 14.6928 5.94382 14.7321 6.0206 14.7762C6.42719 14.9914 6.81151 15.0546 7.21298 15.0546C8.031 15.0546 8.53913 14.6197 8.53913 13.9193V13.9056C8.53913 13.258 7.9655 13.0226 7.42792 12.8528L7.35774 12.8301C6.95232 12.6985 6.60243 12.5847 6.60243 12.3176V12.304C6.60243 12.0752 6.80697 11.9072 7.12389 11.9072C7.47627 11.9072 7.89386 12.0243 8.16316 12.173C8.16316 12.173 8.24257 12.2243 8.27144 12.1476C8.28712 12.1062 8.42323 11.7396 8.43774 11.6999C8.45327 11.6569 8.42602 11.6245 8.39803 11.6078C8.09049 11.4204 7.66572 11.293 7.22602 11.293L7.14441 11.2933C6.39569 11.2933 5.8729 11.746 5.8729 12.3939V12.4078C5.8729 13.0906 6.44961 13.3126 6.98983 13.4669L7.07657 13.4938C7.46997 13.6146 7.80975 13.7189 7.80975 13.9957V14.0095C7.80975 14.2629 7.58895 14.4512 7.23334 14.4512C7.09547 14.4512 6.65532 14.4489 6.17972 14.1481C6.12213 14.1145 6.08931 14.0903 6.04492 14.0632C6.02148 14.049 5.96287 14.0234 5.93737 14.1001L5.77591 14.5481ZM17.751 14.5481C17.7259 14.6134 17.7599 14.627 17.7683 14.6386C17.8429 14.6928 17.9191 14.7321 17.9957 14.7762C18.4024 14.9914 18.7867 15.0546 19.1881 15.0546C20.0061 15.0546 20.5144 14.6197 20.5144 13.9193V13.9056C20.5144 13.258 19.9409 13.0226 19.4032 12.8528L19.333 12.8301C18.9276 12.6985 18.5775 12.5847 18.5775 12.3176V12.304C18.5775 12.0752 18.7822 11.9072 19.0993 11.9072C19.4515 11.9072 19.8689 12.0243 20.1382 12.173C20.1382 12.173 20.2177 12.2243 20.2467 12.1476C20.2622 12.1062 20.3985 11.7396 20.4128 11.6999C20.4285 11.6569 20.4011 11.6245 20.3733 11.6078C20.0656 11.4204 19.641 11.293 19.2013 11.293L19.1195 11.2933C18.3709 11.2933 17.8481 11.746 17.8481 12.3939V12.4078C17.8481 13.0906 18.4247 13.3126 18.9651 13.4669L19.0517 13.4938C19.4452 13.6146 19.785 13.7189 19.785 13.9957V14.0095C19.785 14.2629 19.564 14.4512 19.2087 14.4512C19.0706 14.4512 18.6304 14.4489 18.155 14.1481C18.0974 14.1145 18.0637 14.0914 18.02 14.0632C18.0052 14.0538 17.9362 14.0269 17.9126 14.1001L17.751 14.5481ZM25.9261 13.176C25.9261 13.5717 25.8522 13.884 25.7072 14.1043C25.563 14.3226 25.3454 14.4288 25.042 14.4288C24.7385 14.4288 24.5221 14.3227 24.3803 14.1045C24.2372 13.8842 24.1645 13.5717 24.1645 13.176C24.1645 12.7807 24.2372 12.4694 24.3803 12.2514C24.5221 12.0352 24.7385 11.9303 25.042 11.9303C25.3454 11.9303 25.563 12.0354 25.7072 12.2515C25.8525 12.4694 25.9261 12.7807 25.9261 13.176ZM26.6092 12.4424C26.5419 12.2155 26.4374 12.0158 26.2984 11.8492C26.1591 11.6821 25.9828 11.5478 25.7739 11.4505C25.5652 11.353 25.3191 11.3037 25.042 11.3037C24.7649 11.3037 24.5186 11.353 24.3098 11.4505C24.1012 11.5478 23.9248 11.6821 23.7854 11.8495C23.6465 12.0163 23.5418 12.2158 23.4748 12.4424C23.4081 12.6676 23.3743 12.9145 23.3743 13.176C23.3743 13.4377 23.4081 13.6848 23.4748 13.9097C23.5418 14.1362 23.6462 14.3358 23.7856 14.5029C23.9249 14.6703 24.1018 14.8034 24.3101 14.8984C24.5191 14.9933 24.7652 15.0417 25.042 15.0417C25.3189 15.0417 25.5648 14.9933 25.7736 14.8984C25.9822 14.8034 26.1588 14.6703 26.2984 14.5029C26.4374 14.3363 26.5419 14.1365 26.6092 13.9097C26.6757 13.6843 26.7095 13.4374 26.7095 13.176C26.7095 12.9148 26.6757 12.6678 26.6092 12.4424ZM32.2161 14.3229C32.1936 14.2565 32.1289 14.2815 32.1289 14.2815C32.0297 14.3195 31.9242 14.3547 31.8114 14.3722C31.6977 14.3901 31.5718 14.3991 31.4372 14.3991C31.107 14.3991 30.844 14.3007 30.6563 14.1064C30.4678 13.912 30.3618 13.5979 30.363 13.173C30.364 12.7867 30.4575 12.4958 30.6251 12.2739C30.7913 12.0536 31.0451 11.9404 31.3825 11.9404C31.6643 11.9404 31.8792 11.9731 32.1044 12.0437C32.1044 12.0437 32.1579 12.067 32.1835 11.9966C32.2435 11.8306 32.2877 11.7125 32.3516 11.53C32.3698 11.478 32.3252 11.456 32.3089 11.4497C32.2204 11.4152 32.0114 11.3585 31.8536 11.3346C31.706 11.312 31.5336 11.3003 31.3412 11.3003C31.0544 11.3003 30.7988 11.3494 30.5802 11.4467C30.362 11.5438 30.1769 11.678 30.0303 11.8449C29.8836 12.0121 29.7719 12.2118 29.6981 12.4383C29.6241 12.6637 29.5867 12.911 29.5867 13.1733C29.5867 13.7396 29.7396 14.1971 30.041 14.5324C30.3434 14.8688 30.797 15.0396 31.3891 15.0396C31.7388 15.0396 32.0977 14.9689 32.3561 14.8672C32.3561 14.8672 32.4054 14.8434 32.384 14.786L32.2161 14.3229ZM33.4108 12.7967C33.4435 12.5768 33.5037 12.3941 33.5976 12.2514C33.7393 12.0352 33.955 11.9161 34.2584 11.9161C34.562 11.9161 34.762 12.0354 34.9062 12.2515C35.0014 12.3944 35.043 12.5847 35.0593 12.797L33.4108 12.7967ZM35.7095 12.3136C35.6514 12.0947 35.5081 11.8736 35.4139 11.7725C35.2651 11.6122 35.1195 11.5 34.9749 11.438C34.7656 11.3491 34.5405 11.3034 34.313 11.3037C34.0246 11.3037 33.7624 11.3525 33.5498 11.4521C33.3369 11.552 33.158 11.6886 33.0178 11.8582C32.8773 12.0278 32.7719 12.2295 32.7047 12.4584C32.6373 12.6859 32.6033 12.934 32.6033 13.196C32.6033 13.4623 32.6386 13.7107 32.7081 13.934C32.7782 14.1592 32.8909 14.3569 33.043 14.5214C33.195 14.6865 33.3906 14.816 33.6243 14.9063C33.8568 14.9964 34.1393 15.0432 34.4632 15.0421C35.1311 15.0399 35.4823 14.8911 35.6273 14.8109C35.653 14.7966 35.6772 14.7718 35.647 14.7004L35.4958 14.2773C35.4726 14.2141 35.4087 14.237 35.4087 14.237C35.243 14.2988 35.0084 14.4092 34.4599 14.408C34.1015 14.4074 33.836 14.3015 33.6691 14.136C33.4984 13.9668 33.4146 13.7183 33.4004 13.3673L35.7113 13.369C35.7113 13.369 35.7722 13.3684 35.7785 13.3089C35.781 13.2843 35.8578 12.8342 35.7095 12.3136ZM14.8996 12.7967C14.9322 12.5768 14.9926 12.3941 15.0864 12.2514C15.2282 12.0352 15.4436 11.9161 15.7473 11.9161C16.0509 11.9161 16.2509 12.0354 16.3951 12.2515C16.4902 12.3944 16.5318 12.5847 16.5481 12.797L14.8996 12.7967ZM17.1983 12.3136C17.1403 12.0947 16.9969 11.8736 16.9028 11.7725C16.7541 11.6122 16.6086 11.5 16.4638 11.438C16.2545 11.3491 16.0294 11.3034 15.802 11.3037C15.5135 11.3037 15.2514 11.3525 15.0388 11.4521C14.8259 11.552 14.647 11.6886 14.5065 11.8582C14.3662 12.0278 14.2609 12.2295 14.1933 12.4584C14.1261 12.6859 14.0922 12.934 14.0922 13.196C14.0922 13.4623 14.1273 13.7107 14.1972 13.934C14.2672 14.1592 14.38 14.3569 14.5318 14.5214C14.6839 14.6865 14.8794 14.816 15.1131 14.9063C15.3457 14.9964 15.6279 15.0432 15.9522 15.0421C16.6199 15.0399 16.9712 14.8911 17.1163 14.8109C17.1418 14.7966 17.1661 14.7718 17.1358 14.7004L16.9847 14.2773C16.9614 14.2141 16.8975 14.237 16.8975 14.237C16.7319 14.2988 16.4974 14.4092 15.9487 14.408C15.5904 14.4074 15.3248 14.3015 15.1579 14.136C14.9873 13.9668 14.9034 13.7183 14.8892 13.3673L17.2002 13.369C17.2002 13.369 17.2612 13.3684 17.2675 13.3089C17.27 13.2843 17.3467 12.8342 17.1983 12.3136ZM9.90367 14.3103C9.81298 14.2379 9.80038 14.2201 9.77034 14.1731C9.72448 14.1023 9.70104 14.0015 9.70104 13.8725C9.70104 13.6695 9.76843 13.5233 9.90734 13.4251C9.90587 13.4254 10.1066 13.2519 10.5777 13.2581C10.7878 13.2618 10.9975 13.2797 11.2052 13.3116V14.3621H11.2055C11.2055 14.3621 10.9117 14.4253 10.581 14.4452C10.111 14.4735 9.90221 14.3098 9.90367 14.3103ZM10.8234 12.6859C10.7296 12.679 10.6081 12.6757 10.4625 12.6757C10.2646 12.6757 10.0731 12.7003 9.89327 12.7486C9.71276 12.7973 9.55041 12.8726 9.41078 12.9724C9.27123 13.0721 9.15648 13.2025 9.07539 13.3536C8.99349 13.5062 8.95173 13.6854 8.95173 13.8862C8.95173 14.0912 8.98734 14.2688 9.05767 14.4138C9.12647 14.5577 9.23006 14.6821 9.35906 14.7758C9.48756 14.8692 9.64609 14.9378 9.82997 14.9797C10.0115 15.0212 10.2172 15.0421 10.442 15.0421C10.6794 15.0421 10.9154 15.0222 11.1441 14.9837C11.3389 14.9501 11.533 14.9124 11.7262 14.8706C11.8033 14.8528 11.8883 14.8295 11.8883 14.8295C11.9454 14.815 11.941 14.7539 11.941 14.7539L11.9397 12.6402C11.9397 12.1766 11.8161 11.8332 11.5724 11.6199C11.3299 11.4075 10.9728 11.3003 10.5109 11.3003C10.3374 11.3003 10.0587 11.3237 9.89137 11.3573C9.89137 11.3573 9.38675 11.4552 9.17898 11.618C9.17898 11.618 9.13327 11.6461 9.15818 11.7098L9.32184 12.1494C9.34221 12.2064 9.39774 12.1869 9.39774 12.1869C9.39774 12.1869 9.41518 12.18 9.43569 12.1678C9.88023 11.9261 10.4427 11.9333 10.4427 11.9333C10.6924 11.9333 10.8848 11.9838 11.014 12.0827C11.1402 12.1796 11.2042 12.3254 11.2042 12.6335V12.7312C11.0059 12.7025 10.8234 12.6859 10.8234 12.6859ZM29.4659 11.4952C29.4692 11.4874 29.4709 11.4791 29.471 11.4707C29.471 11.4623 29.4694 11.454 29.4662 11.4462C29.4629 11.4384 29.4581 11.4314 29.4521 11.4255C29.4461 11.4196 29.439 11.415 29.4311 11.4119C29.3917 11.397 29.1952 11.3555 29.0437 11.3462C28.7532 11.328 28.5922 11.3769 28.4477 11.442C28.3044 11.5066 28.1457 11.6111 28.0572 11.7302L28.0569 11.4483C28.0569 11.4096 28.0295 11.3784 27.9906 11.3784H27.398C27.3596 11.3784 27.3318 11.4096 27.3318 11.4483V14.8962C27.3318 14.9148 27.3392 14.9326 27.3524 14.9458C27.3656 14.9589 27.3834 14.9663 27.402 14.9664H28.0093C28.0279 14.9663 28.0457 14.9589 28.0588 14.9458C28.072 14.9326 28.0793 14.9148 28.0793 14.8962V13.1738C28.0793 12.9425 28.1048 12.712 28.1557 12.5671C28.2058 12.4237 28.2739 12.3094 28.3583 12.2272C28.4383 12.1478 28.5362 12.0889 28.6437 12.0555C28.7446 12.0265 28.8489 12.0118 28.9538 12.0118C29.0747 12.0118 29.2077 12.0429 29.2077 12.0429C29.2522 12.0478 29.277 12.0206 29.2921 11.9804C29.3318 11.8748 29.4443 11.5582 29.4659 11.4952Z" fill="#FFFFFE"/>
<path fill-rule="evenodd" clip-rule="evenodd" d="M23.7657 9.897C23.6907 9.87434 23.6144 9.85624 23.5373 9.84279C23.4335 9.82546 23.3284 9.81732 23.2231 9.81846C22.8051 9.81846 22.4756 9.93656 22.2442 10.1698C22.0145 10.4013 21.8581 10.754 21.7798 11.218L21.7515 11.3747H21.2268C21.2268 11.3747 21.1628 11.372 21.1493 11.4419L21.0631 11.9225C21.0571 11.9685 21.0769 11.9972 21.1384 11.9969H21.6492L21.131 14.8897C21.0904 15.1226 21.0439 15.3143 20.9925 15.4595C20.9418 15.6028 20.8923 15.7102 20.8313 15.7881C20.7723 15.8636 20.7163 15.9191 20.6198 15.9515C20.54 15.9783 20.4483 15.9906 20.3478 15.9906C20.2918 15.9906 20.2174 15.9812 20.1625 15.9703C20.1075 15.9594 20.079 15.9471 20.0378 15.9298C20.0378 15.9298 19.9779 15.907 19.9543 15.967C19.9351 16.0161 19.799 16.3905 19.7828 16.4368C19.7664 16.4825 19.7894 16.5185 19.8184 16.5289C19.8864 16.5533 19.937 16.5688 20.0296 16.5906C20.1582 16.621 20.2666 16.6229 20.3682 16.6229C20.5809 16.6229 20.7748 16.593 20.9355 16.5349C21.0973 16.4765 21.2381 16.3747 21.3626 16.2368C21.4973 16.0881 21.582 15.9323 21.663 15.7199C21.7431 15.5093 21.8114 15.2479 21.8661 14.9433L22.3868 11.9969H23.1481C23.1481 11.9969 23.2123 11.9993 23.2256 11.9297L23.3118 11.4491C23.3178 11.4031 23.2981 11.3744 23.2363 11.3747H22.4974C22.5011 11.358 22.5346 11.098 22.6195 10.8533C22.6557 10.7489 22.7238 10.6646 22.7815 10.6067C22.8354 10.5516 22.9018 10.5103 22.9751 10.4863C23.0554 10.4615 23.1391 10.4494 23.2231 10.4506C23.2927 10.4506 23.361 10.4589 23.413 10.4697C23.4847 10.485 23.5125 10.493 23.5313 10.4986C23.6066 10.5216 23.6167 10.4993 23.6315 10.4629L23.8082 9.97759C23.8263 9.92542 23.7821 9.90345 23.7657 9.897ZM13.4398 14.8958C13.4398 14.9345 13.4123 14.966 13.3736 14.966H12.7607C12.7219 14.966 12.6943 14.9345 12.6943 14.8958V9.96279C12.6943 9.92425 12.7219 9.89304 12.7607 9.89304H13.3736C13.4123 9.89304 13.4398 9.92425 13.4398 9.96279V14.8958Z" fill="#FFFFFE"/>
</g>
<defs>
<clipPath id="clip0_45_120">
<rect width="40" height="27.9853" fill="white"/>
</clipPath>
</defs>
</svg>
