<svg width="40" height="40" viewBox="0 0 40 40" fill="none" xmlns="http://www.w3.org/2000/svg">
<path d="M8.40391 25.2767C8.40391 27.5894 6.51466 29.4786 4.20195 29.4786C1.88925 29.4786 0 27.5894 0 25.2767C0 22.964 1.88925 21.0747 4.20195 21.0747H8.40391V25.2767Z" fill="#E01E5A"/>
<path d="M10.5211 25.2767C10.5211 22.964 12.4104 21.0747 14.7231 21.0747C17.0358 21.0747 18.925 22.964 18.925 25.2767V35.7978C18.925 38.1105 17.0358 39.9998 14.7231 39.9998C12.4104 39.9998 10.5211 38.1105 10.5211 35.7978V25.2767Z" fill="#E01E5A"/>
<path d="M14.7231 8.40391C12.4104 8.40391 10.5211 6.51466 10.5211 4.20195C10.5211 1.88925 12.4104 0 14.7231 0C17.0358 0 18.925 1.88925 18.925 4.20195V8.40391H14.7231Z" fill="#36C5F0"/>
<path d="M14.7231 10.521C17.0358 10.521 18.9251 12.4102 18.9251 14.723C18.9251 17.0357 17.0358 18.9249 14.7231 18.9249H4.20196C1.88925 18.9249 0 17.0357 0 14.723C0 12.4102 1.88925 10.521 4.20196 10.521H14.7231Z" fill="#36C5F0"/>
<path d="M31.5961 14.723C31.5961 12.4102 33.4853 10.521 35.798 10.521C38.1107 10.521 40 12.4102 40 14.723C40 17.0357 38.1107 18.9249 35.798 18.9249H31.5961V14.723Z" fill="#2EB67D"/>
<path d="M29.4789 14.7231C29.4789 17.0358 27.5896 18.9251 25.2769 18.9251C22.9642 18.9251 21.075 17.0358 21.075 14.7231V4.20196C21.075 1.88925 22.9642 0 25.2769 0C27.5896 0 29.4789 1.88925 29.4789 4.20196V14.7231Z" fill="#2EB67D"/>
<path d="M25.2769 31.5957C27.5896 31.5957 29.4789 33.485 29.4789 35.7977C29.4789 38.1104 27.5896 39.9996 25.2769 39.9996C22.9642 39.9996 21.075 38.1104 21.075 35.7977V31.5957H25.2769Z" fill="#ECB22E"/>
<path d="M25.2769 29.4786C22.9642 29.4786 21.075 27.5894 21.075 25.2767C21.075 22.964 22.9642 21.0747 25.2769 21.0747H35.7981C38.1108 21.0747 40 22.964 40 25.2767C40 27.5894 38.1108 29.4786 35.7981 29.4786H25.2769Z" fill="#ECB22E"/>
</svg>
